<svg width="25" height="25" viewBox="0 0 25 25" fill="none" xmlns="http://www.w3.org/2000/svg">
<path fill-rule="evenodd" clip-rule="evenodd" d="M8.48572 3.92737L7.06616 6.0567H6.05672C3.8267 6.0567 2.01892 7.86448 2.01892 10.0945V17.1606C2.01892 19.3906 3.8267 21.1984 6.05672 21.1984H18.1701C20.4001 21.1984 22.2079 19.3906 22.2079 17.1606V10.0945C22.2079 7.86448 20.4001 6.0567 18.1701 6.0567H17.1607L15.7411 3.92737C15.3667 3.36571 14.7363 3.02835 14.0613 3.02835H10.1655C9.49052 3.02835 8.86016 3.36571 8.48572 3.92737ZM15.1418 13.6276C15.1418 15.3001 13.7859 16.6559 12.1134 16.6559C10.4409 16.6559 9.08506 15.3001 9.08506 13.6276C9.08506 11.9551 10.4409 10.5992 12.1134 10.5992C13.7859 10.5992 15.1418 11.9551 15.1418 13.6276ZM12.1134 7.06615C12.6709 7.06615 13.1229 6.6142 13.1229 6.0567C13.1229 5.49919 12.6709 5.04725 12.1134 5.04725C11.5559 5.04725 11.104 5.49919 11.104 6.0567C11.104 6.6142 11.5559 7.06615 12.1134 7.06615Z" fill="white"/>
</svg>
