<svg width="37" height="37" viewBox="0 0 37 37" fill="none" xmlns="http://www.w3.org/2000/svg">
<path d="M15.1417 27.2551C15.1417 28.9276 16.4976 30.2835 18.1701 30.2835C19.8426 30.2835 21.1984 28.9276 21.1984 27.2551V21.1984H27.2551C28.9276 21.1984 30.2835 19.8426 30.2835 18.1701C30.2835 16.4976 28.9276 15.1417 27.2551 15.1417H21.1984V9.08505C21.1984 7.41254 19.8426 6.0567 18.1701 6.0567C16.4976 6.0567 15.1417 7.41254 15.1417 9.08505V15.1417L9.08505 15.1417C7.41254 15.1417 6.0567 16.4976 6.0567 18.1701C6.0567 19.8426 7.41254 21.1984 9.08505 21.1984L15.1417 21.1984V27.2551Z" fill="#093D89"/>
</svg>
