<svg width="25" height="25" viewBox="0 0 25 25" fill="none" xmlns="http://www.w3.org/2000/svg">
<path d="M10.0945 18.1701C10.0945 19.2851 10.9984 20.189 12.1134 20.189C13.2284 20.189 14.1323 19.2851 14.1323 18.1701V14.1323H18.1701C19.2851 14.1323 20.189 13.2284 20.189 12.1134C20.189 10.9984 19.2851 10.0945 18.1701 10.0945H14.1323V6.05669C14.1323 4.94169 13.2284 4.0378 12.1134 4.0378C10.9984 4.0378 10.0945 4.94169 10.0945 6.05669V10.0945L6.05668 10.0945C4.94167 10.0945 4.03778 10.9984 4.03778 12.1134C4.03778 13.2284 4.94167 14.1323 6.05668 14.1323L10.0945 14.1323V18.1701Z" fill="white"/>
</svg>
