<svg width="25" height="25" viewBox="0 0 25 25" fill="none" xmlns="http://www.w3.org/2000/svg">
<path fill-rule="evenodd" clip-rule="evenodd" d="M6.2816 18.1703H17.9451C19.7908 18.1703 20.8443 16.3138 19.7369 15.0129C19.2467 14.437 18.9446 13.7539 18.8633 13.0375L18.6977 11.5783C18.5246 11.5984 18.3485 11.6087 18.17 11.6087C15.6612 11.6087 13.6275 9.5749 13.6275 7.06613C13.6275 6.08609 13.9378 5.17853 14.4656 4.43639C14.4454 4.42925 14.4251 4.42219 14.4048 4.41522V4.31053C14.4048 3.04503 13.3789 2.01913 12.1134 2.01913C10.8479 2.01913 9.82198 3.04503 9.82198 4.31053V4.41522C7.65934 5.15569 6.05829 6.9156 5.81488 9.06023L5.36347 13.0375C5.28216 13.7539 4.98004 14.437 4.4898 15.0129C3.3824 16.3138 4.43594 18.1703 6.2816 18.1703ZM21.1984 7.06614C21.1984 8.73865 19.8425 10.0945 18.17 10.0945C16.4975 10.0945 15.1417 8.73865 15.1417 7.06614C15.1417 5.39363 16.4975 4.03779 18.17 4.03779C19.8425 4.03779 21.1984 5.39363 21.1984 7.06614ZM12.1133 22.2081C13.4827 22.2081 14.6518 21.3997 15.1135 20.2614C15.1328 20.2139 15.1417 20.1629 15.1417 20.1117C15.1417 19.8756 14.9503 19.6842 14.7142 19.6842H9.51247C9.27637 19.6842 9.08498 19.8756 9.08498 20.1117C9.08498 20.1629 9.09389 20.2139 9.11315 20.2614C9.57484 21.3997 10.744 22.2081 12.1133 22.2081Z" fill="white"/>
</svg>
