<svg width="25" height="25" viewBox="0 0 25 25" fill="none" xmlns="http://www.w3.org/2000/svg">
<path fill-rule="evenodd" clip-rule="evenodd" d="M10.0945 3.02835H11.2481C14.5141 3.02835 17.2517 5.33731 17.9801 8.44338C18.1043 8.97307 18.1701 9.52594 18.1701 10.0945C18.1701 13.997 15.071 17.1606 11.2481 17.1606H7.02738H4.3262C3.05191 17.1606 2.01889 16.1061 2.01889 14.8053V11.2722C2.01889 6.71924 5.63445 3.02835 10.0945 3.02835ZM11.5365 19.1795H8.13427C9.38272 20.4284 11.0926 21.1984 12.9786 21.1984H17.1994H19.9005C21.1748 21.1984 22.2079 20.1439 22.2079 18.843V15.31C22.2079 13.2176 21.4442 11.3073 20.186 9.85359C20.188 9.93363 20.189 10.0139 20.189 10.0945C20.189 15.112 16.3151 19.1795 11.5365 19.1795Z" fill="white"/>
</svg>
