<svg width="25" height="25" viewBox="0 0 25 25" fill="none" xmlns="http://www.w3.org/2000/svg">
<path d="M6.40309 14.9685C5.61466 15.7569 5.61466 17.0352 6.40309 17.8237C7.19152 18.6121 8.46981 18.6121 9.25824 17.8237L12.1134 14.9685L14.9685 17.8237C15.757 18.6121 17.0353 18.6121 17.8237 17.8237C18.6121 17.0352 18.6121 15.7569 17.8237 14.9685L14.9685 12.1133L17.8237 9.2582C18.6121 8.46977 18.6121 7.19147 17.8237 6.40304C17.0353 5.61462 15.757 5.61462 14.9685 6.40304L12.1134 9.25819L9.25824 6.40304C8.46981 5.61461 7.19152 5.61461 6.40309 6.40304C5.61466 7.19147 5.61466 8.46977 6.40309 9.25819L9.25824 12.1133L6.40309 14.9685Z" fill="white"/>
</svg>
