<svg width="25" height="25" viewBox="0 0 25 25" fill="none" xmlns="http://www.w3.org/2000/svg">
<path fill-rule="evenodd" clip-rule="evenodd" d="M12.1134 5.57643L12.8857 4.74672C15.0182 2.45556 18.4758 2.45556 20.6084 4.74672C22.741 7.03788 22.741 10.7526 20.6084 13.0438L13.6579 20.5111C12.8049 21.4275 11.4219 21.4275 10.5688 20.5111L3.61833 13.0438C1.48574 10.7526 1.48574 7.03788 3.61833 4.74672C5.75091 2.45556 9.20852 2.45556 11.3411 4.74672L12.1134 5.57643ZM17.1606 5.29961C16.7425 5.29961 16.4035 5.63857 16.4035 6.0567C16.4035 6.47482 16.7425 6.81378 17.1606 6.81378C17.8575 6.81378 18.4224 7.37872 18.4224 8.07559C18.4224 8.49372 18.7614 8.83268 19.1795 8.83268C19.5976 8.83268 19.9366 8.49372 19.9366 8.07559C19.9366 6.54246 18.6938 5.29961 17.1606 5.29961Z" fill="white" fill-opacity="0.8"/>
</svg>
